<svg width="80" height="80" viewBox="0 0 80 80" fill="none" xmlns="http://www.w3.org/2000/svg">
<path d="M9 14L40.2439 47L70 14" stroke="#00F0FF" stroke-width="6"/>
<path fill-rule="evenodd" clip-rule="evenodd" d="M40.0239 0.0094893C45.5595 0.0094893 51.0955 -0.0161357 56.631 0.016833C61.8389 0.0479268 66.7301 1.23558 70.9681 4.4016C76.5025 8.53621 79.3346 14.1839 79.8617 20.9989C80.0473 23.3973 79.9896 25.8166 79.9927 28.2264C80.0053 37.5716 79.9983 46.9169 79.9973 56.2623C79.9969 60.0792 79.4661 63.8058 77.851 67.2961C74.5746 74.376 68.8595 78.2464 61.3191 79.5878C59.7468 79.8674 58.1249 79.9718 56.5254 79.9766C45.4838 80.0092 34.4419 80.0017 23.4002 79.9902C17.6584 79.9843 12.407 78.4681 7.93191 74.7428C3.38527 70.9585 0.986055 66.009 0.239727 60.2061C0.110977 59.2052 0.0321486 58.19 0.0312111 57.1815C0.0204299 45.5743 -0.0496483 33.9664 0.0641017 22.3604C0.126289 16.0193 2.2377 10.3971 6.95816 5.96707C10.8737 2.29269 15.6332 0.372771 20.9221 0.18488C27.2818 -0.0410576 33.6558 0.131364 40.0236 0.131364C40.0237 0.0906612 40.0237 0.0500362 40.0239 0.0094893ZM39.9614 72.6069C45.2879 72.6069 50.6143 72.6283 55.9406 72.5922C57.3336 72.5828 58.7468 72.5135 60.1136 72.2664C65.3344 71.3225 69.3037 68.7039 71.3839 63.6203C72.4407 61.0378 72.7859 58.2668 72.8309 55.5831C73.0057 45.1713 72.9072 34.7548 72.8949 24.34C72.8935 23.2118 72.8813 22.0709 72.7217 20.9576C72.0058 15.9586 69.8386 11.8611 65.2379 9.36941C62.67 7.97871 59.8824 7.45363 56.9848 7.45269C45.8261 7.44941 34.6675 7.44613 23.5089 7.45949C22.5004 7.46074 21.4831 7.51652 20.4853 7.65676C14.802 8.45472 10.6158 11.2557 8.52082 16.7661C7.67535 18.9898 7.4052 21.3199 7.40473 23.6856C7.40309 34.5764 7.39262 45.4671 7.41902 56.3581C7.42223 57.6905 7.5216 59.0421 7.76012 60.3514C8.81816 66.1603 12.0573 70.153 17.826 71.7585C19.7483 72.2932 21.8032 72.5294 23.8043 72.5697C29.1882 72.6778 34.5754 72.6065 39.9614 72.6069Z" fill="#00F0FF"/>
</svg>
