<svg width="80" height="80" viewBox="0 0 80 80" fill="none" xmlns="http://www.w3.org/2000/svg">
<g clip-path="url(#clip0_72_56)">
<path fill-rule="evenodd" clip-rule="evenodd" d="M40.0238 0.0094893C45.5595 0.0094893 51.0955 -0.0161357 56.6309 0.016833C61.8389 0.0479268 66.7301 1.23558 70.9681 4.4016C76.5024 8.53621 79.3345 14.1839 79.8616 20.9989C80.0473 23.3973 79.9895 25.8166 79.9927 28.2264C80.0052 37.5716 79.9983 46.9169 79.9973 56.2623C79.9969 60.0792 79.4661 63.8058 77.8509 67.2961C74.5745 74.376 68.8595 78.2464 61.3191 79.5878C59.7468 79.8674 58.1249 79.9718 56.5254 79.9766C45.4838 80.0092 34.4419 80.0017 23.4002 79.9902C17.6584 79.9843 12.407 78.4681 7.93188 74.7428C3.38524 70.9585 0.986024 66.009 0.239696 60.2061C0.110946 59.2052 0.0321181 58.19 0.0311806 57.1815C0.0203993 45.5743 -0.0496788 33.9664 0.0640712 22.3604C0.126259 16.0193 2.23767 10.3971 6.95813 5.96707C10.8737 2.29269 15.6331 0.372771 20.9221 0.18488C27.2818 -0.0410576 33.6558 0.131364 40.0236 0.131364C40.0237 0.0906612 40.0237 0.0500362 40.0238 0.0094893ZM39.9613 72.6069C45.2879 72.6069 50.6143 72.6283 55.9406 72.5922C57.3335 72.5828 58.7467 72.5135 60.1135 72.2664C65.3344 71.3225 69.3037 68.7039 71.3838 63.6203C72.4407 61.0378 72.7859 58.2668 72.8309 55.5831C73.0056 45.1713 72.9071 34.7548 72.8949 24.34C72.8934 23.2118 72.8813 22.0709 72.7216 20.9576C72.0058 15.9586 69.8386 11.8611 65.2379 9.36941C62.67 7.97871 59.8824 7.45363 56.9848 7.45269C45.8261 7.44941 34.6674 7.44613 23.5088 7.45949C22.5004 7.46074 21.4831 7.51652 20.4852 7.65676C14.802 8.45472 10.6158 11.2557 8.52079 16.7661C7.67532 18.9898 7.40517 21.3199 7.4047 23.6856C7.40306 34.5764 7.39259 45.4671 7.41899 56.3581C7.4222 57.6905 7.52157 59.0421 7.76009 60.3514C8.81813 66.1603 12.0573 70.153 17.8259 71.7585C19.7483 72.2932 21.8032 72.5294 23.8042 72.5697C29.1881 72.6778 34.5754 72.6065 39.9613 72.6069Z" fill="#00F0FF"/>
<path fill-rule="evenodd" clip-rule="evenodd" d="M60.6174 39.8725C60.6124 51.2613 51.3202 60.5246 39.9283 60.4968C28.5321 60.4692 19.3545 51.2705 19.3478 39.8695C19.3412 28.4811 28.6196 19.2171 40.0199 19.2295C51.322 19.2417 60.6225 28.5628 60.6174 39.8725ZM39.9905 53.0615C47.2566 53.067 53.2412 47.0868 53.2286 39.8329C53.216 32.6293 47.2467 26.6488 40.0397 26.6195C32.784 26.5901 26.8023 32.5519 26.787 39.8284C26.7716 47.1153 32.6986 53.0557 39.9905 53.0615Z" fill="#00F0FF"/>
<path fill-rule="evenodd" clip-rule="evenodd" d="M61.3823 23.3855C58.8026 23.3625 56.7692 21.2983 56.7775 18.7112C56.7856 16.0947 58.8701 14.0432 61.5018 14.0612C64.0521 14.0788 66.1304 16.1837 66.1226 18.7412C66.1148 21.3349 63.998 23.4089 61.3823 23.3855Z" fill="#00F0FF"/>
</g>
<defs>
<clipPath id="clip0_72_56">
<rect width="80" height="80" fill="white"/>
</clipPath>
</defs>
</svg>
