<svg width="60" height="60" viewBox="0 0 60 60" fill="none" xmlns="http://www.w3.org/2000/svg">
<line x1="19.0042" y1="52.5" x2="59.0042" y2="52.5" stroke="#00F0FF"/>
<line x1="1.00415" y1="55.5" x2="41.0042" y2="55.5" stroke="#00F0FF"/>
<path d="M51.9154 12.6142C51.5602 12.3129 51.1279 12.1128 50.6651 12.0356C50.2024 11.9585 49.727 12.0072 49.2905 12.1764L9.63951 27.4704C9.12118 27.6703 8.68272 28.0297 8.38974 28.4947C8.09677 28.9596 7.96503 29.5053 8.01424 30.0499C8.06345 30.5945 8.29097 31.1089 8.66274 31.516C9.03452 31.923 9.53057 32.201 10.0766 32.3082L20.8391 34.4217V47.4646C20.8337 47.9664 20.9828 48.4581 21.2667 48.8753C21.5507 49.2925 21.9563 49.6159 22.4306 49.803C22.7483 49.9336 23.0891 50.0013 23.4336 50.0022C23.7702 50.0012 24.1032 49.9345 24.4133 49.8061C24.7234 49.6777 25.0045 49.4901 25.2402 49.2542L31.3839 43.2222L40.4489 51.0544C40.916 51.4617 41.5189 51.687 42.1437 51.6877C42.4152 51.6874 42.6851 51.6453 42.9434 51.563C43.3695 51.4304 43.7527 51.1903 44.0548 50.8669C44.3569 50.5434 44.5673 50.1478 44.665 49.7196L52.7461 15.0978C52.8516 14.6488 52.83 14.18 52.6835 13.7422C52.5371 13.3044 52.2715 12.9143 51.9154 12.6142ZM9.72627 29.9007C9.70489 29.7185 9.74675 29.5344 9.84507 29.3784C9.94339 29.2224 10.0924 29.1035 10.2681 29.0409L46.6144 15.0216L21.4991 32.8304L10.4137 30.6536C10.2296 30.6224 10.0615 30.531 9.9368 30.3944C9.81205 30.2578 9.73788 30.0839 9.72627 29.9007ZM24.0248 48.0611C23.9046 48.1791 23.7515 48.2595 23.5848 48.2921C23.4181 48.3246 23.2453 48.3079 23.0883 48.2441C22.9313 48.1802 22.7971 48.0721 22.7027 47.9333C22.6082 47.7946 22.5578 47.6314 22.5578 47.4646V35.5964L30.0911 42.1052L24.0248 48.0611ZM51.0708 14.7209L42.9897 49.3426C42.9564 49.4851 42.886 49.6166 42.7854 49.7243C42.6848 49.8321 42.5574 49.9123 42.4158 49.9571C42.2741 50.002 42.123 50.0099 41.9772 49.9802C41.8315 49.9505 41.6961 49.8841 41.5843 49.7876L23.0746 33.795L50.9319 14.0418C51.0052 14.1376 51.0557 14.2484 51.0797 14.3659C51.1038 14.4834 51.1007 14.6047 51.0708 14.7209Z" fill="#00F0FF"/>
<rect x="1.00415" y="1" width="58" height="58" stroke="#00F0FF" stroke-width="2"/>
<line y1="10.5" x2="60" y2="10.5" stroke="#00F0FF" stroke-width="2"/>
</svg>
