<svg width="60" height="60" viewBox="0 0 60 60" fill="none" xmlns="http://www.w3.org/2000/svg">
<g clip-path="url(#clip0_28_70)">
<path d="M48.6963 45.2331L46.9555 44.2263C47.2121 43.4825 47.4173 42.7218 47.5694 41.9498H49.5761C52.2339 41.8542 51.3914 38.6293 51.5163 36.9212C51.5156 36.4072 51.3109 35.9143 50.9472 35.5508C50.5835 35.1873 50.0904 34.9828 49.5761 34.9821H47.5747C47.4226 34.2101 47.2174 33.4494 46.9608 32.7055L48.7043 31.6988C48.9254 31.5709 49.1192 31.4007 49.2744 31.198C49.4296 30.9952 49.5433 30.7638 49.609 30.5171C49.6747 30.2704 49.691 30.0131 49.6571 29.7601C49.6232 29.507 49.5396 29.2631 49.4113 29.0424C48.4625 27.6371 47.5508 24.4043 45.2173 25.6581L43.4738 26.6649C42.9545 26.0729 42.397 25.5156 41.8047 24.9967L42.812 23.2541C44.0664 20.9324 40.8292 20.0106 39.4259 19.0623C39.205 18.9338 38.9608 18.8502 38.7074 18.8163C38.4541 18.7824 38.1965 18.7989 37.9495 18.8648C37.7025 18.9307 37.471 19.0447 37.2683 19.2003C37.0655 19.3559 36.8955 19.5501 36.7681 19.7716L35.7635 21.5088C35.017 21.2572 34.2553 21.0531 33.4831 20.8979V18.9003C33.3874 16.2439 30.1608 17.0859 28.4518 16.9611C27.9379 16.9625 27.4455 17.1673 27.0824 17.5308C26.7193 17.8942 26.515 18.3866 26.5143 18.9003V20.9058C25.741 21.0608 24.9785 21.2648 24.2312 21.5168L23.2292 19.7795C23.1015 19.5583 22.9314 19.3644 22.7287 19.209C22.5259 19.0536 22.2944 18.9397 22.0476 18.8738C21.8007 18.8079 21.5432 18.7914 21.2899 18.8251C21.0366 18.8588 20.7925 18.9421 20.5714 19.0703C19.1654 20.0186 15.9282 20.9297 17.1827 23.2621L18.19 25.0047C17.5979 25.5229 17.0412 26.0803 16.5236 26.6729L14.7801 25.6661C12.4571 24.4096 11.5322 27.6478 10.5834 29.0503C10.4552 29.2713 10.3718 29.5153 10.3381 29.7684C10.3043 30.0216 10.3209 30.2789 10.3868 30.5257C10.4527 30.7724 10.5667 31.0038 10.7222 31.2064C10.8777 31.4091 11.0717 31.5791 11.293 31.7067L13.0339 32.7135C12.7791 33.458 12.574 34.2185 12.4199 34.99H10.4239C7.76611 35.0857 8.6113 38.3105 8.48638 40.0186C8.48708 40.5322 8.69135 41.0247 9.05449 41.3881C9.41762 41.7515 9.91002 41.9564 10.4239 41.9578H12.4306C12.5843 42.7294 12.7894 43.4899 13.0445 44.2343L11.3037 45.2411C9.06046 46.6304 11.3967 49.0344 12.1409 50.5539C12.2685 50.7751 12.4387 50.969 12.6415 51.1243C12.8444 51.2797 13.0759 51.3935 13.3229 51.4591C13.5698 51.5248 13.8273 51.541 14.0806 51.5069C14.3339 51.4729 14.5779 51.3891 14.7987 51.2605L16.5422 50.2563C17.0598 50.8481 17.6166 51.4045 18.2086 51.9219L17.2013 53.6672C17.0729 53.8881 16.9894 54.1323 16.9556 54.3857C16.9219 54.639 16.9386 54.8965 17.0048 55.1434C17.071 55.3903 17.1854 55.6216 17.3414 55.8241C17.4973 56.0267 17.6918 56.1964 17.9136 56.3236C19.4233 57.0647 21.8738 59.4023 23.2292 57.1603L24.2339 55.4204C24.9809 55.6738 25.7435 55.8788 26.5169 56.034V58.0396C26.61 60.696 29.8365 59.8512 31.5455 59.9761C32.0596 59.9761 32.5527 59.7722 32.9165 59.4091C33.2803 59.046 33.485 58.5534 33.4857 58.0396V56.034C34.2584 55.8791 35.0201 55.6741 35.7661 55.4204L36.7708 57.1603C38.1342 59.4023 40.59 57.062 42.0864 56.3236C42.308 56.1962 42.5022 56.0263 42.6579 55.8237C42.8136 55.621 42.9277 55.3896 42.9937 55.1428C43.0596 54.8959 43.0761 54.6385 43.0422 54.3853C43.0082 54.132 42.9246 53.888 42.796 53.6672L41.7887 51.9219C42.381 51.4039 42.9386 50.8475 43.4578 50.2563L45.2013 51.2605C45.4221 51.3891 45.6661 51.4729 45.9194 51.5069C46.1727 51.541 46.4302 51.5248 46.6771 51.4591C46.9241 51.3935 47.1556 51.2797 47.3585 51.1243C47.5613 50.969 47.7315 50.7751 47.8591 50.5539C48.606 49.0264 50.9422 46.6224 48.6963 45.2331ZM47.8405 46.9704L46.2937 49.648C46.2763 49.6741 46.2498 49.6929 46.2194 49.7008C46.189 49.7086 46.1568 49.705 46.1289 49.6905L43.7236 48.3039C43.5357 48.1946 43.3147 48.1565 43.101 48.1965C42.8873 48.2365 42.6951 48.3519 42.5595 48.5217C41.8231 49.4392 40.9889 50.2738 40.0718 51.0108C39.0963 51.7492 40.6033 53.2182 41.2412 54.5783C41.256 54.6064 41.2596 54.639 41.2512 54.6696C41.2428 54.7002 41.2231 54.7264 41.196 54.743L38.5169 56.2864C38.4888 56.2997 38.457 56.3027 38.4269 56.2949C38.3967 56.2872 38.3703 56.2691 38.3522 56.2439L36.9674 53.8531C36.8589 53.6645 36.6863 53.5211 36.481 53.449C36.2756 53.3769 36.0512 53.3807 35.8485 53.46C34.7529 53.89 33.6128 54.1965 32.4492 54.3738C32.2341 54.4062 32.0378 54.5146 31.8959 54.6793C31.754 54.8441 31.6759 55.0542 31.6757 55.2716V58.0422C31.6751 58.0744 31.662 58.1051 31.6392 58.1279C31.6164 58.1507 31.5857 58.1638 31.5535 58.1644H28.4545C28.4225 58.1637 28.3921 58.1506 28.3697 58.1277C28.3474 58.1049 28.3349 58.0742 28.3349 58.0422V55.253C28.3342 55.0358 28.2559 54.8259 28.1141 54.6613C27.9723 54.4967 27.7763 54.3881 27.5615 54.3552C26.397 54.1779 25.256 53.8714 24.1595 53.4414C23.0326 52.9606 22.5063 55.0033 21.6558 56.2359C21.6373 56.2607 21.6109 56.2785 21.5809 56.2862C21.5509 56.2939 21.5192 56.2912 21.491 56.2784L18.8146 54.735C18.8007 54.7273 18.7885 54.7169 18.7787 54.7044C18.7688 54.6919 18.7616 54.6775 18.7574 54.6622C18.7532 54.6468 18.7521 54.6308 18.7542 54.615C18.7562 54.5993 18.7614 54.5841 18.7694 54.5703L20.1568 52.1663C20.2639 51.9775 20.3003 51.7567 20.2594 51.5435C20.2185 51.3303 20.103 51.1386 19.9336 51.0028C19.0149 50.2666 18.1798 49.4319 17.4432 48.5138C16.7017 47.5362 15.2399 49.045 13.8764 49.6826C13.8486 49.6991 13.8153 49.7039 13.7839 49.6959C13.7525 49.688 13.7256 49.6679 13.709 49.6401L12.1648 46.9624C12.1523 46.9335 12.1517 46.9008 12.1631 46.8715C12.1745 46.8421 12.1971 46.8185 12.2259 46.8057L14.6179 45.419C14.8059 45.3106 14.9488 45.1384 15.0205 44.9337C15.0922 44.7289 15.088 44.5053 15.0086 44.3034C14.5772 43.2091 14.2679 42.0706 14.0864 40.9085C13.9296 39.6866 11.915 40.2603 10.4159 40.1381C10.384 40.1374 10.3536 40.1243 10.3312 40.1014C10.3089 40.0786 10.2963 40.0479 10.2963 40.0159V36.9239C10.2963 36.8919 10.3089 36.8613 10.3312 36.8384C10.3536 36.8156 10.384 36.8024 10.4159 36.8017C11.9096 36.6848 13.9402 37.2453 14.0864 36.0313C14.2637 34.8678 14.5695 33.7274 14.998 32.6312C15.0775 32.4289 15.0818 32.2048 15.0101 31.9996C14.9384 31.7944 14.7955 31.6217 14.6073 31.5128L12.2153 30.1288C12.2014 30.1211 12.1892 30.1107 12.1793 30.0982C12.1695 30.0857 12.1623 30.0713 12.1581 30.056C12.1539 30.0406 12.1528 30.0246 12.1548 30.0088C12.1569 29.9931 12.1621 29.9779 12.1701 29.9641L13.7143 27.2865L13.8791 27.244L16.2711 28.6306C16.4593 28.7396 16.6805 28.7773 16.8942 28.7368C17.1079 28.6964 17.2999 28.5804 17.4352 28.4102C18.1748 27.4912 19.0125 26.6557 19.9336 25.9185C20.9116 25.1906 19.402 23.703 18.7641 22.3536C18.7513 22.3254 18.7486 22.2937 18.7563 22.2637C18.764 22.2338 18.7818 22.2073 18.8066 22.1889L21.4831 20.6429C21.5114 20.6272 21.5447 20.6232 21.5759 20.6317C21.6071 20.6401 21.6339 20.6603 21.6505 20.688L23.0379 23.0788C23.1455 23.2675 23.3176 23.4112 23.5227 23.4834C23.7277 23.5556 23.9519 23.5515 24.1542 23.4719C25.251 23.043 26.3919 22.7365 27.5561 22.5581C28.7734 22.412 28.21 20.3825 28.3296 18.8923C28.3296 18.8603 28.3421 18.8296 28.3644 18.8068C28.3868 18.784 28.4172 18.7708 28.4492 18.7701H31.5402C31.5724 18.7708 31.6031 18.7839 31.6259 18.8066C31.6487 18.8294 31.6618 18.8601 31.6625 18.8923V21.6682C31.6625 21.8852 31.7402 22.095 31.8816 22.2597C32.0229 22.4244 32.2186 22.5331 32.4332 22.5661C33.5974 22.7445 34.7384 23.051 35.8352 23.4799C36.9648 23.958 37.4724 21.9471 38.3389 20.688C38.3469 20.674 38.3575 20.6617 38.3703 20.6519C38.3831 20.642 38.3976 20.6348 38.4132 20.6306C38.4288 20.6264 38.445 20.6253 38.461 20.6274C38.477 20.6295 38.4924 20.6348 38.5063 20.6429L41.1827 22.1889L41.2279 22.3536L39.8405 24.7443C39.7312 24.9321 39.693 25.153 39.7331 25.3666C39.7731 25.5802 39.8886 25.7723 40.0585 25.9078C40.9759 26.6464 41.8109 27.4818 42.5488 28.3995C43.2771 29.3744 44.7601 27.8682 46.1156 27.2307C46.1436 27.2169 46.1757 27.2135 46.2059 27.2213C46.2362 27.2291 46.2626 27.2476 46.2804 27.2732L47.8405 29.9615C47.856 29.9894 47.86 30.0223 47.8515 30.053C47.8431 30.0838 47.8229 30.1101 47.7953 30.1262L45.4033 31.5102C45.2151 31.619 45.0719 31.7916 44.9998 31.9967C44.9277 32.2017 44.9313 32.4258 45.01 32.6285C45.4385 33.725 45.7451 34.8652 45.9243 36.0287C46.0704 37.2427 48.101 36.6822 49.592 36.799C49.6245 36.799 49.6555 36.8119 49.6785 36.8348C49.7014 36.8578 49.7143 36.8888 49.7143 36.9212V40.0106C49.7143 40.043 49.7014 40.0741 49.6785 40.097C49.6555 40.1199 49.6245 40.1328 49.592 40.1328H46.8066C46.5894 40.1323 46.3792 40.2098 46.2143 40.3512C46.0494 40.4926 45.9408 40.6885 45.9083 40.9032C45.7291 42.0666 45.4225 43.2069 44.994 44.3034C44.9149 44.5056 44.9111 44.7295 44.9833 44.9342C45.0555 45.139 45.1989 45.3111 45.3874 45.419L47.7794 46.8057C47.7944 46.8123 47.808 46.8218 47.8192 46.8337C47.8305 46.8457 47.8392 46.8597 47.8449 46.8751C47.8506 46.8904 47.8532 46.9068 47.8524 46.9232C47.8517 46.9395 47.8476 46.9556 47.8405 46.9704ZM30.0013 26.0486C13.5814 26.5799 13.5841 50.3653 30.0013 50.8833C46.4213 50.3626 46.4159 26.564 30.0013 26.0486ZM30.0013 49.0663C27.2175 49.0222 24.5627 47.886 22.6096 45.9029C20.6565 43.9197 19.5619 41.2486 19.5619 38.4659C19.5619 35.6833 20.6565 33.0121 22.6096 31.029C24.5627 29.0458 27.2175 27.9096 30.0013 27.8656C32.7851 27.9096 35.44 29.0458 37.3931 31.029C39.3461 33.0121 40.4407 35.6833 40.4407 38.4659C40.4407 41.2486 39.3461 43.9197 37.3931 45.9029C35.44 47.886 32.7851 49.0222 30.0013 49.0663ZM59.0937 3.88397e-06H0.90897C0.667896 3.88397e-06 0.436696 0.0957192 0.266231 0.266094C0.0957662 0.436468 0 0.667545 0 0.908491L0 50.5831C0 50.824 0.0957662 51.0551 0.266231 51.2255C0.436696 51.3959 0.667896 51.4916 0.90897 51.4916H8.18073C8.42181 51.4916 8.653 51.3959 8.82347 51.2255C8.99393 51.0551 9.0897 50.824 9.0897 50.5831C9.0897 50.3421 8.99393 50.1111 8.82347 49.9407C8.653 49.7703 8.42181 49.6746 8.18073 49.6746H1.81794V10.2988H58.1821V49.6746H51.8272C51.5862 49.6746 51.355 49.7703 51.1845 49.9407C51.014 50.1111 50.9183 50.3421 50.9183 50.5831C50.9183 50.824 51.014 51.0551 51.1845 51.2255C51.355 51.3959 51.5862 51.4916 51.8272 51.4916H59.099C59.3396 51.4909 59.5701 51.3948 59.74 51.2245C59.9099 51.0542 60.0053 50.8236 60.0053 50.5831V0.908491C60.0053 0.788963 59.9817 0.67061 59.9359 0.560213C59.89 0.449817 59.8228 0.349548 59.7381 0.265153C59.6535 0.180757 59.5529 0.113894 59.4424 0.0683944C59.3318 0.0228952 59.2133 -0.000345613 59.0937 3.88397e-06ZM58.1821 8.48187H1.81794V1.81698H58.1821V8.48187ZM52.6246 5.7936C51.7688 4.96746 53.1056 3.66849 53.911 4.51056C54.7163 5.35264 53.4565 6.64099 52.6246 5.7936ZM47.511 5.15075C47.5235 4.91865 47.6246 4.70019 47.7935 4.54033C47.9623 4.38047 48.186 4.29137 48.4186 4.29137C48.6512 4.29137 48.8749 4.38047 49.0437 4.54033C49.2126 4.70019 49.3137 4.91865 49.3262 5.15075C49.3051 5.37599 49.2006 5.58523 49.0332 5.73753C48.8658 5.88984 48.6476 5.97425 48.4213 5.97425C48.1949 5.97425 47.9767 5.88984 47.8093 5.73753C47.642 5.58523 47.5375 5.37599 47.5163 5.15075H47.511ZM42.9289 5.7936C42.0811 4.96746 43.3834 3.69771 44.2126 4.49728C45.0419 5.29686 43.7635 6.64099 42.9342 5.7936H42.9289ZM32.691 32.6737L29.0525 44.7868C28.982 45.0176 28.8227 45.2109 28.6096 45.3242C28.3965 45.4375 28.1471 45.4616 27.9163 45.3912C27.6854 45.3207 27.492 45.1615 27.3786 44.9485C27.2652 44.7355 27.2411 44.4863 27.3116 44.2556L30.9475 32.1424C31.0223 31.9165 31.1825 31.7288 31.3939 31.6194C31.6053 31.51 31.8512 31.4876 32.0789 31.557C32.3066 31.6264 32.4981 31.782 32.6125 31.9907C32.7269 32.1994 32.7551 32.4445 32.691 32.6737ZM25.9694 35.3699L23.8804 38.5018L25.9694 41.631C26.0358 41.7303 26.0819 41.8416 26.1051 41.9587C26.1284 42.0757 26.1284 42.1962 26.105 42.3133C26.0817 42.4303 26.0356 42.5416 25.9692 42.6408C25.9028 42.74 25.8176 42.8252 25.7183 42.8915C25.619 42.9578 25.5076 43.0039 25.3905 43.0271C25.2733 43.0504 25.1528 43.0503 25.0357 43.027C24.9186 43.0037 24.8072 42.9576 24.7079 42.8913C24.6087 42.8249 24.5235 42.7397 24.4571 42.6405L22.0332 39.0039C21.9332 38.855 21.8799 38.6798 21.8799 38.5005C21.8799 38.3212 21.9332 38.1459 22.0332 37.9971L24.4518 34.3631C24.5854 34.162 24.7935 34.0221 25.0302 33.9743C25.267 33.9265 25.513 33.9746 25.7143 34.1081C25.9155 34.2416 26.0555 34.4496 26.1033 34.6862C26.1512 34.9228 26.103 35.1688 25.9694 35.3699ZM35.5375 34.3631L37.9615 37.9971C38.0614 38.1459 38.1148 38.3212 38.1148 38.5005C38.1148 38.6798 38.0614 38.855 37.9615 39.0039L35.5375 42.6405C35.4712 42.7397 35.386 42.8249 35.2867 42.8913C35.1875 42.9576 35.0761 43.0037 34.959 43.027C34.8419 43.0503 34.7213 43.0504 34.6042 43.0271C34.4871 43.0039 34.3757 42.9578 34.2764 42.8915C34.1771 42.8252 34.0919 42.74 34.0255 42.6408C33.9591 42.5416 33.913 42.4303 33.8896 42.3133C33.8663 42.1962 33.8663 42.0757 33.8896 41.9587C33.9128 41.8416 33.9589 41.7303 34.0252 41.631L36.1116 38.5018L34.0252 35.3699C33.8917 35.1684 33.8437 34.9221 33.8918 34.6853C33.9398 34.4484 34.0801 34.2403 34.2817 34.1068C34.4833 33.9733 34.7297 33.9253 34.9667 33.9734C35.2037 34.0214 35.4119 34.1616 35.5455 34.3631H35.5375Z" fill="#FF4EFF"/>
</g>
<defs>
<clipPath id="clip0_28_70">
<rect width="60" height="60" rx="3" fill="white"/>
</clipPath>
</defs>
</svg>
