<svg width="60" height="60" viewBox="0 0 60 60" fill="none" xmlns="http://www.w3.org/2000/svg">
<path d="M52.5 6.5625H7.5C6.2568 6.5625 5.06451 7.05636 4.18544 7.93544C3.30636 8.81451 2.8125 10.0068 2.8125 11.25V48.75C2.8125 49.9932 3.30636 51.1855 4.18544 52.0646C5.06451 52.9436 6.2568 53.4375 7.5 53.4375H52.5C53.7432 53.4375 54.9355 52.9436 55.8146 52.0646C56.6936 51.1855 57.1875 49.9932 57.1875 48.75V11.25C57.1875 10.0068 56.6936 8.81451 55.8146 7.93544C54.9355 7.05636 53.7432 6.5625 52.5 6.5625ZM55.3125 48.75C55.3125 49.4959 55.0162 50.2113 54.4887 50.7387C53.9613 51.2662 53.2459 51.5625 52.5 51.5625H7.5C6.75408 51.5625 6.03871 51.2662 5.51126 50.7387C4.98382 50.2113 4.6875 49.4959 4.6875 48.75V15.9375H55.3125V48.75ZM4.6875 14.0625V11.25C4.6875 10.5041 4.98382 9.78871 5.51126 9.26126C6.03871 8.73382 6.75408 8.4375 7.5 8.4375H52.5C53.2459 8.4375 53.9613 8.73382 54.4887 9.26126C55.0162 9.78871 55.3125 10.5041 55.3125 11.25V14.0625H4.6875ZM51.5625 11.25C51.5625 11.4354 51.5075 11.6167 51.4045 11.7708C51.3015 11.925 51.1551 12.0452 50.9838 12.1161C50.8125 12.1871 50.624 12.2057 50.4421 12.1695C50.2602 12.1333 50.0932 12.044 49.9621 11.9129C49.831 11.7818 49.7417 11.6148 49.7055 11.4329C49.6693 11.251 49.6879 11.0625 49.7589 10.8912C49.8298 10.7199 49.95 10.5735 50.1042 10.4705C50.2583 10.3675 50.4396 10.3125 50.625 10.3125C50.8736 10.3125 51.1121 10.4113 51.2879 10.5871C51.4637 10.7629 51.5625 11.0014 51.5625 11.25ZM48.75 11.25C48.75 11.4354 48.695 11.6167 48.592 11.7708C48.489 11.925 48.3426 12.0452 48.1713 12.1161C48 12.1871 47.8115 12.2057 47.6296 12.1695C47.4477 12.1333 47.2807 12.044 47.1496 11.9129C47.0185 11.7818 46.9292 11.6148 46.893 11.4329C46.8568 11.251 46.8754 11.0625 46.9464 10.8912C47.0173 10.7199 47.1375 10.5735 47.2917 10.4705C47.4458 10.3675 47.6271 10.3125 47.8125 10.3125C48.0611 10.3125 48.2996 10.4113 48.4754 10.5871C48.6512 10.7629 48.75 11.0014 48.75 11.25ZM45.9375 11.25C45.9375 11.4354 45.8825 11.6167 45.7795 11.7708C45.6765 11.925 45.5301 12.0452 45.3588 12.1161C45.1875 12.1871 44.999 12.2057 44.8171 12.1695C44.6352 12.1333 44.4682 12.044 44.3371 11.9129C44.206 11.7818 44.1167 11.6148 44.0805 11.4329C44.0443 11.251 44.0629 11.0625 44.1339 10.8912C44.2048 10.7199 44.325 10.5735 44.4792 10.4705C44.6333 10.3675 44.8146 10.3125 45 10.3125C45.2486 10.3125 45.4871 10.4113 45.6629 10.5871C45.8387 10.7629 45.9375 11.0014 45.9375 11.25ZM9.375 38.4375H28.125C28.3736 38.4375 28.6121 38.3387 28.7879 38.1629C28.9637 37.9871 29.0625 37.7486 29.0625 37.5V18.75C29.0625 18.5014 28.9637 18.2629 28.7879 18.0871C28.6121 17.9113 28.3736 17.8125 28.125 17.8125H9.375C9.12636 17.8125 8.8879 17.9113 8.71209 18.0871C8.53627 18.2629 8.4375 18.5014 8.4375 18.75V37.5C8.4375 37.7486 8.53627 37.9871 8.71209 38.1629C8.8879 38.3387 9.12636 38.4375 9.375 38.4375ZM10.3125 19.6875H27.1875V36.5625H10.3125V19.6875ZM9.375 49.6875H50.625C50.8736 49.6875 51.1121 49.5887 51.2879 49.4129C51.4637 49.2371 51.5625 48.9986 51.5625 48.75V41.25C51.5625 41.0014 51.4637 40.7629 51.2879 40.5871C51.1121 40.4113 50.8736 40.3125 50.625 40.3125H9.375C9.12636 40.3125 8.8879 40.4113 8.71209 40.5871C8.53627 40.7629 8.4375 41.0014 8.4375 41.25V48.75C8.4375 48.9986 8.53627 49.2371 8.71209 49.4129C8.8879 49.5887 9.12636 49.6875 9.375 49.6875ZM10.3125 42.1875H49.6875V47.8125H10.3125V42.1875ZM30.9375 20.625C30.9375 20.3764 31.0363 20.1379 31.2121 19.9621C31.3879 19.7863 31.6264 19.6875 31.875 19.6875H50.625C50.8736 19.6875 51.1121 19.7863 51.2879 19.9621C51.4637 20.1379 51.5625 20.3764 51.5625 20.625C51.5625 20.8736 51.4637 21.1121 51.2879 21.2879C51.1121 21.4637 50.8736 21.5625 50.625 21.5625H31.875C31.6264 21.5625 31.3879 21.4637 31.2121 21.2879C31.0363 21.1121 30.9375 20.8736 30.9375 20.625ZM30.9375 24.375C30.9375 24.1264 31.0363 23.8879 31.2121 23.7121C31.3879 23.5363 31.6264 23.4375 31.875 23.4375H50.625C50.8736 23.4375 51.1121 23.5363 51.2879 23.7121C51.4637 23.8879 51.5625 24.1264 51.5625 24.375C51.5625 24.6236 51.4637 24.8621 51.2879 25.0379C51.1121 25.2137 50.8736 25.3125 50.625 25.3125H31.875C31.6264 25.3125 31.3879 25.2137 31.2121 25.0379C31.0363 24.8621 30.9375 24.6236 30.9375 24.375ZM30.9375 28.125C30.9375 27.8764 31.0363 27.6379 31.2121 27.4621C31.3879 27.2863 31.6264 27.1875 31.875 27.1875H50.625C50.8736 27.1875 51.1121 27.2863 51.2879 27.4621C51.4637 27.6379 51.5625 27.8764 51.5625 28.125C51.5625 28.3736 51.4637 28.6121 51.2879 28.7879C51.1121 28.9637 50.8736 29.0625 50.625 29.0625H31.875C31.6264 29.0625 31.3879 28.9637 31.2121 28.7879C31.0363 28.6121 30.9375 28.3736 30.9375 28.125ZM30.9375 31.875C30.9375 31.6264 31.0363 31.3879 31.2121 31.2121C31.3879 31.0363 31.6264 30.9375 31.875 30.9375H50.625C50.8736 30.9375 51.1121 31.0363 51.2879 31.2121C51.4637 31.3879 51.5625 31.6264 51.5625 31.875C51.5625 32.1236 51.4637 32.3621 51.2879 32.5379C51.1121 32.7137 50.8736 32.8125 50.625 32.8125H31.875C31.6264 32.8125 31.3879 32.7137 31.2121 32.5379C31.0363 32.3621 30.9375 32.1236 30.9375 31.875ZM30.9375 35.625C30.9375 35.3764 31.0363 35.1379 31.2121 34.9621C31.3879 34.7863 31.6264 34.6875 31.875 34.6875H50.625C50.8736 34.6875 51.1121 34.7863 51.2879 34.9621C51.4637 35.1379 51.5625 35.3764 51.5625 35.625C51.5625 35.8736 51.4637 36.1121 51.2879 36.2879C51.1121 36.4637 50.8736 36.5625 50.625 36.5625H31.875C31.6264 36.5625 31.3879 36.4637 31.2121 36.2879C31.0363 36.1121 30.9375 35.8736 30.9375 35.625Z" fill="#00F0FF"/>
</svg>
