<svg width="60" height="60" viewBox="0 0 60 60" fill="none" xmlns="http://www.w3.org/2000/svg">
<path d="M13.125 47.8125H11.25V49.6875H13.125V47.8125Z" fill="#00F0FF"/>
<path d="M52.5 7.5H13.125C12.3791 7.5 11.6637 7.79632 11.1363 8.32376C10.6088 8.85121 10.3125 9.56658 10.3125 10.3125V23.4375H6.5625C5.81658 23.4375 5.10121 23.7338 4.57376 24.2613C4.04632 24.7887 3.75 25.5041 3.75 26.25V49.6875C3.75 50.4334 4.04632 51.1488 4.57376 51.6762C5.10121 52.2037 5.81658 52.5 6.5625 52.5H17.8125C18.5584 52.5 19.2738 52.2037 19.8012 51.6762C20.3287 51.1488 20.625 50.4334 20.625 49.6875V44.0625H27.1875V46.6153L24.5091 51.0797C24.4236 51.2219 24.3774 51.3843 24.3753 51.5502C24.3731 51.7161 24.415 51.8797 24.4967 52.0241C24.5784 52.1685 24.697 52.2887 24.8403 52.3723C24.9836 52.4559 25.1466 52.5 25.3125 52.5H40.3125C40.4784 52.5 40.6414 52.4559 40.7847 52.3723C40.928 52.2887 41.0466 52.1685 41.1283 52.0241C41.21 51.8797 41.2519 51.7161 41.2497 51.5502C41.2476 51.3843 41.2014 51.2219 41.1159 51.0797L38.4375 46.6153V44.0625H52.5C53.2459 44.0625 53.9613 43.7662 54.4887 43.2387C55.0162 42.7113 55.3125 41.9959 55.3125 41.25V10.3125C55.3125 9.56658 55.0162 8.85121 54.4887 8.32376C53.9613 7.79632 53.2459 7.5 52.5 7.5ZM18.75 49.6875C18.75 49.9361 18.6512 50.1746 18.4754 50.3504C18.2996 50.5262 18.0611 50.625 17.8125 50.625H6.5625C6.31386 50.625 6.0754 50.5262 5.89959 50.3504C5.72377 50.1746 5.625 49.9361 5.625 49.6875V46.875H18.75V49.6875ZM18.75 45H5.625V29.0625H18.75V45ZM18.75 27.1875H5.625V26.25C5.625 26.0014 5.72377 25.7629 5.89959 25.5871C6.0754 25.4113 6.31386 25.3125 6.5625 25.3125H17.8125C18.0611 25.3125 18.2996 25.4113 18.4754 25.5871C18.6512 25.7629 18.75 26.0014 18.75 26.25V27.1875ZM17.8125 23.4375H15.9375V13.125H20.625V26.25C20.625 25.5041 20.3287 24.7887 19.8012 24.2613C19.2738 23.7338 18.5584 23.4375 17.8125 23.4375ZM38.6559 50.625H26.9691L28.9284 47.3578C29.0161 47.212 29.0624 47.0451 29.0625 46.875V44.0625H36.5625V46.875C36.5626 47.0451 36.6089 47.212 36.6966 47.3578L38.6559 50.625ZM53.4375 41.25C53.4375 41.4986 53.3387 41.7371 53.1629 41.9129C52.9871 42.0887 52.7486 42.1875 52.5 42.1875H20.625V36.5625H53.4375V41.25ZM53.4375 34.6875H20.625V31.875H21.5625C21.8111 31.875 22.0496 31.7762 22.2254 31.6004C22.4012 31.4246 22.5 31.1861 22.5 30.9375V12.1875C22.5 11.9389 22.4012 11.7004 22.2254 11.5246C22.0496 11.3488 21.8111 11.25 21.5625 11.25H15C14.7514 11.25 14.5129 11.3488 14.3371 11.5246C14.1613 11.7004 14.0625 11.9389 14.0625 12.1875V23.4375H12.1875V10.3125C12.1875 10.0639 12.2863 9.8254 12.4621 9.64959C12.6379 9.47377 12.8764 9.375 13.125 9.375H52.5C52.7486 9.375 52.9871 9.47377 53.1629 9.64959C53.3387 9.8254 53.4375 10.0639 53.4375 10.3125V34.6875Z" fill="#00F0FF"/>
<path d="M33.75 38.4375H31.875V40.3125H33.75V38.4375Z" fill="#00F0FF"/>
<path d="M12.1875 40.3125C13.1146 40.3125 14.0209 40.0376 14.7917 39.5225C15.5626 39.0074 16.1634 38.2754 16.5182 37.4188C16.873 36.5623 16.9658 35.6198 16.7849 34.7105C16.6041 33.8012 16.1576 32.966 15.5021 32.3104C14.8465 31.6549 14.0113 31.2084 13.102 31.0276C12.1927 30.8467 11.2502 30.9395 10.3937 31.2943C9.53714 31.6491 8.80506 32.2499 8.28999 33.0208C7.77492 33.7916 7.5 34.6979 7.5 35.625C7.50149 36.8677 7.99583 38.0592 8.87458 38.9379C9.75334 39.8167 10.9448 40.311 12.1875 40.3125ZM12.1875 32.8125C12.7438 32.8125 13.2875 32.9775 13.75 33.2865C14.2126 33.5955 14.573 34.0348 14.7859 34.5487C14.9988 35.0626 15.0545 35.6281 14.946 36.1737C14.8374 36.7193 14.5696 37.2204 14.1762 37.6137C13.7829 38.0071 13.2818 38.2749 12.7362 38.3835C12.1906 38.492 11.6251 38.4363 11.1112 38.2234C10.5973 38.0105 10.158 37.6501 9.84899 37.1875C9.53995 36.725 9.375 36.1813 9.375 35.625C9.375 34.8791 9.67132 34.1637 10.1988 33.6363C10.7262 33.1088 11.4416 32.8125 12.1875 32.8125Z" fill="#00F0FF"/>
<path d="M16.875 41.25H7.5V43.125H16.875V41.25Z" fill="#00F0FF"/>
<path d="M32.8125 11.25C31.1437 11.25 29.5124 11.7449 28.1249 12.672C26.7373 13.5991 25.6559 14.9169 25.0173 16.4586C24.3787 18.0004 24.2116 19.6969 24.5371 21.3336C24.8627 22.9703 25.6663 24.4737 26.8463 25.6537C28.0263 26.8337 29.5297 27.6373 31.1664 27.9629C32.8031 28.2884 34.4996 28.1213 36.0414 27.4827C37.5831 26.8441 38.9009 25.7627 39.828 24.3751C40.7552 22.9876 41.25 21.3563 41.25 19.6875C41.2475 17.4505 40.3578 15.3058 38.776 13.724C37.1942 12.1422 35.0495 11.2525 32.8125 11.25ZM32.8125 26.25C31.5146 26.25 30.2458 25.8651 29.1666 25.144C28.0874 24.4229 27.2462 23.398 26.7495 22.1989C26.2528 20.9997 26.1229 19.6802 26.3761 18.4072C26.6293 17.1342 27.2543 15.9649 28.1721 15.0471C29.0899 14.1293 30.2592 13.5043 31.5322 13.2511C32.8052 12.9979 34.1247 13.1278 35.3239 13.6245C36.523 14.1212 37.5479 14.9624 38.269 16.0416C38.9901 17.1208 39.375 18.3896 39.375 19.6875C39.3728 21.4273 38.6807 23.0952 37.4504 24.3254C36.2202 25.5556 34.5523 26.2478 32.8125 26.25Z" fill="#00F0FF"/>
<path d="M40.3125 30H25.3125V31.875H40.3125V30Z" fill="#00F0FF"/>
<path d="M50.625 11.25H44.0625C43.8139 11.25 43.5754 11.3488 43.3996 11.5246C43.2238 11.7004 43.125 11.9389 43.125 12.1875V20.625C43.125 20.8736 43.2238 21.1121 43.3996 21.2879C43.5754 21.4637 43.8139 21.5625 44.0625 21.5625H50.625C50.8736 21.5625 51.1121 21.4637 51.2879 21.2879C51.4637 21.1121 51.5625 20.8736 51.5625 20.625V12.1875C51.5625 11.9389 51.4637 11.7004 51.2879 11.5246C51.1121 11.3488 50.8736 11.25 50.625 11.25ZM49.6875 19.6875H45V13.125H49.6875V19.6875Z" fill="#00F0FF"/>
<path d="M50.625 23.4375H44.0625C43.8139 23.4375 43.5754 23.5363 43.3996 23.7121C43.2238 23.8879 43.125 24.1264 43.125 24.375V30.9375C43.125 31.1861 43.2238 31.4246 43.3996 31.6004C43.5754 31.7762 43.8139 31.875 44.0625 31.875H50.625C50.8736 31.875 51.1121 31.7762 51.2879 31.6004C51.4637 31.4246 51.5625 31.1861 51.5625 30.9375V24.375C51.5625 24.1264 51.4637 23.8879 51.2879 23.7121C51.1121 23.5363 50.8736 23.4375 50.625 23.4375ZM49.6875 30H45V25.3125H49.6875V30Z" fill="#00F0FF"/>
</svg>
