<svg width="75" height="50" viewBox="0 0 75 50" fill="none" xmlns="http://www.w3.org/2000/svg">
<path d="M29.8413 7.40732C30.7322 7.40732 31.4544 6.57821 31.4544 5.55546C31.4544 4.53272 30.7322 3.70361 29.8413 3.70361C28.9505 3.70361 28.2283 4.53272 28.2283 5.55546C28.2283 6.57821 28.9505 7.40732 29.8413 7.40732Z" fill="#00F0FF"/>
<path d="M25.0022 7.40732C25.8931 7.40732 26.6152 6.57821 26.6152 5.55546C26.6152 4.53272 25.8931 3.70361 25.0022 3.70361C24.1113 3.70361 23.3892 4.53272 23.3892 5.55546C23.3892 6.57821 24.1113 7.40732 25.0022 7.40732Z" fill="#00F0FF"/>
<path d="M20.163 7.40732C21.0538 7.40732 21.776 6.57821 21.776 5.55546C21.776 4.53272 21.0538 3.70361 20.163 3.70361C19.2721 3.70361 18.5499 4.53272 18.5499 5.55546C18.5499 6.57821 19.2721 7.40732 20.163 7.40732Z" fill="#00F0FF"/>
<path d="M70.1674 0H42.7457C40.4874 0 38.713 2.03704 38.713 4.62963V14.8148H35.487V4.62963C35.487 2.03704 33.7126 0 31.4543 0H4.03261C1.77435 0 0 2.03704 0 4.62963V45.3704C0 47.963 1.77435 50 4.03261 50H31.4543C33.7126 50 35.487 47.963 35.487 45.3704V39.8148H38.713V45.3704C38.713 47.963 40.4874 50 42.7457 50H70.1674C72.4257 50 74.2 47.963 74.2 45.3704V4.62963C74.2 2.03704 72.4257 0 70.1674 0ZM42.7457 1.85185H70.1674C71.5385 1.85185 72.587 3.05556 72.587 4.62963V9.25926H40.3261V4.62963C40.3261 3.05556 41.3746 1.85185 42.7457 1.85185ZM31.4543 37.963V21.2963H38.713V24.0741H34.6804C34.1965 24.0741 33.8739 24.4444 33.8739 25V34.2593C33.8739 34.8148 34.1965 35.1852 34.6804 35.1852H50.8109C51.2948 35.1852 51.6174 34.8148 51.6174 34.2593V25C51.6174 24.4444 51.2948 24.0741 50.8109 24.0741H44.3587V21.2963H54.037V37.963H31.4543ZM29.8413 28.7037H24.1957V21.2963H29.8413V28.7037ZM38.713 25.9259V28.7037H35.487V25.9259H38.713ZM44.3587 25.9259H50.0043V33.3333H44.3587V25.9259ZM42.7457 33.3333H35.487V30.5556H39.5196C40.0035 30.5556 40.3261 30.1852 40.3261 29.6296V20.3704C40.3261 19.8148 40.0035 19.4444 39.5196 19.4444H23.3891C22.9052 19.4444 22.5826 19.8148 22.5826 20.3704V29.6296C22.5826 30.1852 22.9052 30.5556 23.3891 30.5556H29.8413V33.3333H20.163V16.6667H42.7457V33.3333ZM4.03261 1.85185H31.4543C32.8254 1.85185 33.8739 3.05556 33.8739 4.62963V9.25926H1.61304V4.62963C1.61304 3.05556 2.66152 1.85185 4.03261 1.85185ZM33.8739 45.3704C33.8739 46.9444 32.8254 48.1481 31.4543 48.1481H4.03261C2.66152 48.1481 1.61304 46.9444 1.61304 45.3704V11.1111H33.8739V14.8148H19.3565C18.8726 14.8148 18.55 15.1852 18.55 15.7407V34.2593C18.55 34.8148 18.8726 35.1852 19.3565 35.1852H29.8413V38.8889C29.8413 39.4444 30.1639 39.8148 30.6478 39.8148H33.8739V45.3704ZM70.1674 48.1481H42.7457C41.3746 48.1481 40.3261 46.9444 40.3261 45.3704V39.8148H54.8435C55.3274 39.8148 55.65 39.4444 55.65 38.8889V20.3704C55.65 19.8148 55.3274 19.4444 54.8435 19.4444H44.3587V15.7407C44.3587 15.1852 44.0361 14.8148 43.5522 14.8148H40.3261V11.1111H72.587V45.3704C72.587 46.9444 71.5385 48.1481 70.1674 48.1481Z" fill="#00F0FF"/>
<path d="M68.5543 7.40732C69.4452 7.40732 70.1674 6.57821 70.1674 5.55546C70.1674 4.53272 69.4452 3.70361 68.5543 3.70361C67.6635 3.70361 66.9413 4.53272 66.9413 5.55546C66.9413 6.57821 67.6635 7.40732 68.5543 7.40732Z" fill="#00F0FF"/>
<path d="M63.7152 7.40732C64.6061 7.40732 65.3283 6.57821 65.3283 5.55546C65.3283 4.53272 64.6061 3.70361 63.7152 3.70361C62.8244 3.70361 62.1022 4.53272 62.1022 5.55546C62.1022 6.57821 62.8244 7.40732 63.7152 7.40732Z" fill="#00F0FF"/>
<path d="M58.8761 7.40732C59.767 7.40732 60.4891 6.57821 60.4891 5.55546C60.4891 4.53272 59.767 3.70361 58.8761 3.70361C57.9852 3.70361 57.2631 4.53272 57.2631 5.55546C57.2631 6.57821 57.9852 7.40732 58.8761 7.40732Z" fill="#00F0FF"/>
</svg>
