<svg width="80" height="80" viewBox="0 0 80 80" fill="none" xmlns="http://www.w3.org/2000/svg">
<path d="M23.3333 66.7502V36.6668H28.6667C29.0556 36.6668 29.4445 36.7091 29.8333 36.7935C30.2222 36.8779 30.6111 36.9746 31 37.0835L54.0833 45.6668C54.8611 45.9446 55.4867 46.4446 55.96 47.1668C56.4333 47.8891 56.6689 48.6391 56.6667 49.4168C56.6667 50.5835 56.2633 51.5279 55.4567 52.2502C54.65 52.9724 53.72 53.3335 52.6667 53.3335H43.9167C43.6389 53.3335 43.4311 53.3202 43.2933 53.2935C43.1556 53.2668 42.9745 53.1968 42.75 53.0835L37.4167 51.0002L36.3333 54.2502L42.75 56.5002C42.8611 56.5557 43.0278 56.5979 43.25 56.6268C43.4722 56.6557 43.6667 56.6691 43.8333 56.6668H66.6667C68.4445 56.6668 70 57.3057 71.3333 58.5835C72.6667 59.8613 73.3333 61.4446 73.3333 63.3335L46.75 73.3335L23.3333 66.7502ZM3.33334 73.3335V36.6668H16.6667V73.3335H3.33334ZM43.0833 36.8335L28.9167 22.6668L33.6667 18.0002L43.0833 27.4168L62 8.5835L66.6667 13.2502L43.0833 36.8335Z" fill="#00F0FF"/>
</svg>
