<svg width="60" height="60" viewBox="0 0 60 60" fill="none" xmlns="http://www.w3.org/2000/svg">
<path d="M52.9522 53.8861C53.4644 53.8861 53.8795 53.4718 53.8795 52.9607C53.8795 52.4497 53.4644 52.0354 52.9522 52.0354C52.4401 52.0354 52.025 52.4497 52.025 52.9607C52.025 53.4718 52.4401 53.8861 52.9522 53.8861Z" fill="#00F0FF"/>
<path d="M58.1711 49.3335L44.569 35.7597C45.3501 34.2863 45.9502 32.7179 46.3502 31.0545L52.475 29.8853V22.471L46.3502 21.3018C45.8358 19.2106 45.0167 17.243 43.9118 15.4464L47.4266 10.285L42.1686 5.04743L36.9964 8.54544C35.1961 7.45228 33.2243 6.61579 31.1193 6.11203L29.9476 0H22.5179L21.3463 6.11203C19.2507 6.6253 17.2694 7.45228 15.4786 8.54543L10.3064 5.04742L5.04846 10.285L8.56331 15.4464C7.45834 17.243 6.63917 19.2106 6.12483 21.3018L0 22.471V29.8853L6.12483 31.0544C6.62965 33.1647 7.45834 35.1323 8.56331 36.9193L5.04846 42.0808L10.3064 47.3279L15.4786 43.8298C17.2694 44.923 19.2507 45.7405 21.3463 46.2537L22.5179 52.3753H29.9476L31.1193 46.2537C32.7195 45.8735 34.2531 45.3032 35.6819 44.5618L49.3126 58.1642C51.7642 60.6106 55.7169 60.6133 58.1711 58.1642C60.6096 55.7308 60.6096 51.7669 58.1711 49.3335ZM15.1548 26.1876C15.1548 20.0756 20.1175 15.1232 26.2328 15.1232C29.4999 15.1232 32.4338 16.5301 34.4721 18.7734C31.1722 17.7975 28.8505 18.4482 27.6044 18.4882L33.7483 24.6287L31.8432 31.9005L24.5563 33.8016L18.4125 27.661C18.362 28.9476 17.7768 31.219 18.622 34.2198C16.4883 32.2046 15.1548 29.353 15.1548 26.1876ZM56.8186 56.8238C55.1157 58.5232 52.3675 58.5226 50.6652 56.8238C46.9005 53.067 38.4884 44.6724 34.7293 40.9212L34.1673 41.0923C27.5709 43.2487 20.882 38.7233 20.1365 32.0715L23.9848 35.9117L33.4053 33.4594L35.8724 24.0489L32.0241 20.2087C38.7465 21.0004 43.1939 27.6653 41.0637 34.2198L40.8827 34.7711C44.2587 38.1401 53.0233 46.8865 56.8186 50.6738C58.5141 52.3753 58.5141 55.1224 56.8186 56.8238Z" fill="#00F0FF"/>
<path d="M30.3254 30.381L31.7028 25.2512L27.9397 21.4958L22.799 22.8704L21.4216 28.0002L25.1848 31.7556L30.3254 30.381Z" fill="#00F0FF"/>
</svg>
