<svg width="60" height="60" viewBox="0 0 60 60" fill="none" xmlns="http://www.w3.org/2000/svg">
<path d="M52.5 6.5625H7.5C6.2568 6.5625 5.06451 7.05636 4.18544 7.93544C3.30636 8.81451 2.8125 10.0068 2.8125 11.25V48.75C2.8125 49.9932 3.30636 51.1855 4.18544 52.0646C5.06451 52.9436 6.2568 53.4375 7.5 53.4375H52.5C53.7432 53.4375 54.9355 52.9436 55.8146 52.0646C56.6936 51.1855 57.1875 49.9932 57.1875 48.75V11.25C57.1875 10.0068 56.6936 8.81451 55.8146 7.93544C54.9355 7.05636 53.7432 6.5625 52.5 6.5625ZM55.3125 48.75C55.3125 49.4959 55.0162 50.2113 54.4887 50.7387C53.9613 51.2662 53.2459 51.5625 52.5 51.5625H7.5C6.75408 51.5625 6.03871 51.2662 5.51126 50.7387C4.98382 50.2113 4.6875 49.4959 4.6875 48.75V15.9375H55.3125V48.75ZM4.6875 14.0625V11.25C4.6875 10.5041 4.98382 9.78871 5.51126 9.26126C6.03871 8.73382 6.75408 8.4375 7.5 8.4375H52.5C53.2459 8.4375 53.9613 8.73382 54.4887 9.26126C55.0162 9.78871 55.3125 10.5041 55.3125 11.25V14.0625H4.6875ZM51.5625 11.25C51.5625 11.4354 51.5075 11.6167 51.4045 11.7708C51.3015 11.925 51.1551 12.0452 50.9838 12.1161C50.8125 12.1871 50.624 12.2057 50.4421 12.1695C50.2602 12.1333 50.0932 12.044 49.9621 11.9129C49.831 11.7818 49.7417 11.6148 49.7055 11.4329C49.6693 11.251 49.6879 11.0625 49.7589 10.8912C49.8298 10.7199 49.95 10.5735 50.1042 10.4705C50.2583 10.3675 50.4396 10.3125 50.625 10.3125C50.8736 10.3125 51.1121 10.4113 51.2879 10.5871C51.4637 10.7629 51.5625 11.0014 51.5625 11.25ZM48.75 11.25C48.75 11.4354 48.695 11.6167 48.592 11.7708C48.489 11.925 48.3426 12.0452 48.1713 12.1161C48 12.1871 47.8115 12.2057 47.6296 12.1695C47.4477 12.1333 47.2807 12.044 47.1496 11.9129C47.0185 11.7818 46.9292 11.6148 46.893 11.4329C46.8568 11.251 46.8754 11.0625 46.9464 10.8912C47.0173 10.7199 47.1375 10.5735 47.2917 10.4705C47.4458 10.3675 47.6271 10.3125 47.8125 10.3125C48.0611 10.3125 48.2996 10.4113 48.4754 10.5871C48.6512 10.7629 48.75 11.0014 48.75 11.25ZM45.9375 11.25C45.9375 11.4354 45.8825 11.6167 45.7795 11.7708C45.6765 11.925 45.5301 12.0452 45.3588 12.1161C45.1875 12.1871 44.999 12.2057 44.8171 12.1695C44.6352 12.1333 44.4682 12.044 44.3371 11.9129C44.206 11.7818 44.1167 11.6148 44.0805 11.4329C44.0443 11.251 44.0629 11.0625 44.1339 10.8912C44.2048 10.7199 44.325 10.5735 44.4792 10.4705C44.6333 10.3675 44.8146 10.3125 45 10.3125C45.2486 10.3125 45.4871 10.4113 45.6629 10.5871C45.8387 10.7629 45.9375 11.0014 45.9375 11.25ZM9.375 27.1875H50.625C50.8736 27.1875 51.1121 27.0887 51.2879 26.9129C51.4637 26.7371 51.5625 26.4986 51.5625 26.25V18.75C51.5625 18.5014 51.4637 18.2629 51.2879 18.0871C51.1121 17.9113 50.8736 17.8125 50.625 17.8125H9.375C9.12636 17.8125 8.8879 17.9113 8.71209 18.0871C8.53627 18.2629 8.4375 18.5014 8.4375 18.75V26.25C8.4375 26.4986 8.53627 26.7371 8.71209 26.9129C8.8879 27.0887 9.12636 27.1875 9.375 27.1875ZM10.3125 19.6875H49.6875V25.3125H10.3125V19.6875ZM9.375 38.4375H50.625C50.8736 38.4375 51.1121 38.3387 51.2879 38.1629C51.4637 37.9871 51.5625 37.7486 51.5625 37.5V30C51.5625 29.7514 51.4637 29.5129 51.2879 29.3371C51.1121 29.1613 50.8736 29.0625 50.625 29.0625H9.375C9.12636 29.0625 8.8879 29.1613 8.71209 29.3371C8.53627 29.5129 8.4375 29.7514 8.4375 30V37.5C8.4375 37.7486 8.53627 37.9871 8.71209 38.1629C8.8879 38.3387 9.12636 38.4375 9.375 38.4375ZM10.3125 30.9375H49.6875V36.5625H10.3125V30.9375ZM9.375 49.6875H50.625C50.8736 49.6875 51.1121 49.5887 51.2879 49.4129C51.4637 49.2371 51.5625 48.9986 51.5625 48.75V41.25C51.5625 41.0014 51.4637 40.7629 51.2879 40.5871C51.1121 40.4113 50.8736 40.3125 50.625 40.3125H9.375C9.12636 40.3125 8.8879 40.4113 8.71209 40.5871C8.53627 40.7629 8.4375 41.0014 8.4375 41.25V48.75C8.4375 48.9986 8.53627 49.2371 8.71209 49.4129C8.8879 49.5887 9.12636 49.6875 9.375 49.6875ZM10.3125 42.1875H49.6875V47.8125H10.3125V42.1875Z" fill="#FF4EFF"/>
</svg>
