<svg width="80" height="80" viewBox="0 0 80 80" fill="none" xmlns="http://www.w3.org/2000/svg">
<path fill-rule="evenodd" clip-rule="evenodd" d="M40.0239 0.0094893C45.5595 0.0094893 51.0955 -0.0161357 56.631 0.016833C61.8389 0.0479268 66.7301 1.23558 70.9681 4.4016C76.5025 8.53621 79.3346 14.1839 79.8617 20.9989C80.0473 23.3973 79.9896 25.8166 79.9927 28.2264C80.0053 37.5716 79.9983 46.9169 79.9973 56.2623C79.9969 60.0792 79.4661 63.8058 77.851 67.2961C74.5746 74.376 68.8595 78.2464 61.3191 79.5878C59.7468 79.8674 58.1249 79.9718 56.5254 79.9766C45.4838 80.0092 34.4419 80.0017 23.4002 79.9902C17.6584 79.9843 12.407 78.4681 7.93191 74.7428C3.38527 70.9585 0.986055 66.009 0.239727 60.2061C0.110977 59.2052 0.0321486 58.19 0.0312111 57.1815C0.0204299 45.5743 -0.0496483 33.9664 0.0641017 22.3604C0.126289 16.0193 2.2377 10.3971 6.95816 5.96707C10.8737 2.29269 15.6332 0.372771 20.9221 0.18488C27.2818 -0.0410576 33.6558 0.131364 40.0236 0.131364C40.0237 0.0906612 40.0237 0.0500362 40.0239 0.0094893ZM39.9614 72.6069C45.2879 72.6069 50.6143 72.6283 55.9406 72.5922C57.3336 72.5828 58.7468 72.5135 60.1136 72.2664C65.3344 71.3225 69.3037 68.7039 71.3839 63.6203C72.4407 61.0378 72.7859 58.2668 72.8309 55.5831C73.0057 45.1713 72.9072 34.7548 72.8949 24.34C72.8935 23.2118 72.8813 22.0709 72.7217 20.9576C72.0058 15.9586 69.8386 11.8611 65.2379 9.36941C62.67 7.97871 59.8824 7.45363 56.9848 7.45269C45.8261 7.44941 34.6675 7.44613 23.5089 7.45949C22.5004 7.46074 21.4831 7.51652 20.4853 7.65676C14.802 8.45472 10.6158 11.2557 8.52082 16.7661C7.67535 18.9898 7.4052 21.3199 7.40473 23.6856C7.40309 34.5764 7.39262 45.4671 7.41902 56.3581C7.42223 57.6905 7.5216 59.0421 7.76012 60.3514C8.81816 66.1603 12.0573 70.153 17.826 71.7585C19.7483 72.2932 21.8032 72.5294 23.8043 72.5697C29.1882 72.6778 34.5754 72.6065 39.9614 72.6069Z" fill="#00F0FF"/>
<g clip-path="url(#clip0_73_78)">
<path d="M13.75 66.2501L18.5625 55.1668C14.8807 49.9403 13.2328 43.5498 13.928 37.1946C14.6233 30.8394 17.614 24.9563 22.3387 20.6495C27.0635 16.3427 33.1976 13.9082 39.5899 13.8029C45.9821 13.6975 52.1931 15.9286 57.0572 20.0774C61.9213 24.2262 65.1042 30.0075 66.0084 36.3364C66.9127 42.6652 65.4763 49.1065 61.9686 54.4515C58.461 59.7965 53.1234 63.6777 46.9574 65.3667C40.7914 67.0557 34.221 66.4364 28.4792 63.6251L13.75 66.2501Z" stroke="#00F0FF" stroke-width="6" stroke-linecap="round" stroke-linejoin="round"/>
<path d="M31.25 34.1665C31.25 34.5533 31.4036 34.9242 31.6771 35.1977C31.9506 35.4712 32.3216 35.6248 32.7083 35.6248C33.0951 35.6248 33.466 35.4712 33.7395 35.1977C34.013 34.9242 34.1667 34.5533 34.1667 34.1665V31.2498C34.1667 30.8631 34.013 30.4921 33.7395 30.2186C33.466 29.9451 33.0951 29.7915 32.7083 29.7915C32.3216 29.7915 31.9506 29.9451 31.6771 30.2186C31.4036 30.4921 31.25 30.8631 31.25 31.2498V34.1665ZM31.25 34.1665C31.25 38.0342 32.7865 41.7436 35.5214 44.4785C38.2563 47.2134 41.9656 48.7498 45.8333 48.7498M45.8333 48.7498H48.75C49.1368 48.7498 49.5077 48.5962 49.7812 48.3227C50.0547 48.0492 50.2083 47.6783 50.2083 47.2915C50.2083 46.9047 50.0547 46.5338 49.7812 46.2603C49.5077 45.9868 49.1368 45.8332 48.75 45.8332H45.8333C45.4466 45.8332 45.0756 45.9868 44.8021 46.2603C44.5286 46.5338 44.375 46.9047 44.375 47.2915C44.375 47.6783 44.5286 48.0492 44.8021 48.3227C45.0756 48.5962 45.4466 48.7498 45.8333 48.7498Z" stroke="#00F0FF" stroke-width="5" stroke-linecap="round" stroke-linejoin="round"/>
</g>
<defs>
<clipPath id="clip0_73_78">
<rect width="70" height="70" fill="white" transform="translate(5 5)"/>
</clipPath>
</defs>
</svg>
